<svg preserveAspectRatio="none" overflow="visible" style="display: block;" width="20" height="20" viewBox="0 0 20 20" fill="none" xmlns="http://www.w3.org/2000/svg">
<g id="trash">
<path id="Vector" d="M17.5 5.60833C17.4833 5.60833 17.4583 5.60833 17.4333 5.60833C13.025 5.16667 8.625 5 4.26667 5.44167L2.56667 5.60833C2.21667 5.64167 1.90833 5.39167 1.875 5.04167C1.84167 4.69167 2.09167 4.39167 2.43333 4.35833L4.13333 4.19167C8.56667 3.74167 13.0583 3.91667 17.5583 4.35833C17.9 4.39167 18.15 4.7 18.1167 5.04167C18.0917 5.36667 17.8167 5.60833 17.5 5.60833Z" fill="#979797"/>
<path id="Vector_2" d="M7.08333 4.76667C7.05 4.76667 7.01667 4.76667 6.975 4.75833C6.64167 4.7 6.40833 4.375 6.46667 4.04167L6.65 2.95C6.78333 2.15 6.96667 1.04167 8.90833 1.04167H11.0917C13.0417 1.04167 13.225 2.19167 13.35 2.95833L13.5333 4.04167C13.5917 4.38333 13.3583 4.70833 13.025 4.75833C12.6833 4.81667 12.3583 4.58333 12.3083 4.25L12.125 3.16667C12.0083 2.44167 11.9833 2.3 11.1 2.3H8.91667C8.03333 2.3 8.01667 2.41667 7.89167 3.15833L7.7 4.24167C7.65 4.55 7.38333 4.76667 7.08333 4.76667Z" fill="#979797"/>
<path id="Vector_3" d="M12.675 18.9583H7.325C4.41667 18.9583 4.3 17.35 4.20833 16.05L3.66667 7.65833C3.64167 7.31667 3.90833 7.01667 4.25 6.99167C4.6 6.975 4.89167 7.23333 4.91667 7.575L5.45833 15.9667C5.55 17.2333 5.58333 17.7083 7.325 17.7083H12.675C14.425 17.7083 14.4583 17.2333 14.5417 15.9667L15.0833 7.575C15.1083 7.23333 15.4083 6.975 15.75 6.99167C16.0917 7.01667 16.3583 7.30833 16.3333 7.65833L15.7917 16.05C15.7 17.35 15.5833 18.9583 12.675 18.9583Z" fill="#979797"/>
<path id="Vector_4" d="M11.3833 14.375H8.60833C8.26667 14.375 7.98333 14.0917 7.98333 13.75C7.98333 13.4083 8.26667 13.125 8.60833 13.125H11.3833C11.725 13.125 12.0083 13.4083 12.0083 13.75C12.0083 14.0917 11.725 14.375 11.3833 14.375Z" fill="#979797"/>
<path id="Vector_5" d="M12.0833 11.0417H7.91667C7.575 11.0417 7.29167 10.7583 7.29167 10.4167C7.29167 10.075 7.575 9.79167 7.91667 9.79167H12.0833C12.425 9.79167 12.7083 10.075 12.7083 10.4167C12.7083 10.7583 12.425 11.0417 12.0833 11.0417Z" fill="#979797"/>
<g id="Vector_6" opacity="0">
</g>
</g>
</svg>
